<?xml version="1.0" standalone="no"?>
<!DOCTYPE svg PUBLIC "-//W3C//DTD SVG 20010904//EN"
 "http://www.w3.org/TR/2001/REC-SVG-20010904/DTD/svg10.dtd">
<svg version="1.0" xmlns="http://www.w3.org/2000/svg"
 width="676.000000pt" height="548.000000pt" viewBox="0 0 676.000000 548.000000"
 preserveAspectRatio="xMidYMid meet">
<metadata>
Created by potrace 1.16, written by Peter Selinger 2001-2019
</metadata>
<g transform="translate(0.000000,548.000000) scale(0.100000,-0.100000)"
fill="#000000" stroke="none">
<path d="M350 5474 c-70 -9 -173 -35 -209 -53 -48 -25 -91 -72 -108 -118 -25
-67 -26 -188 -2 -293 11 -52 24 -113 29 -135 5 -22 16 -61 24 -85 48 -134 68
-198 72 -224 2 -15 7 -33 12 -40 5 -6 15 -36 22 -66 7 -30 17 -62 21 -70 16
-29 31 -116 49 -280 10 -91 21 -178 25 -195 3 -16 13 -68 21 -115 30 -167 55
-285 65 -305 5 -11 23 -62 39 -113 17 -52 40 -115 51 -140 26 -59 138 -247
162 -273 10 -10 15 -19 12 -19 -6 0 38 -39 104 -93 34 -27 116 -63 216 -92 79
-24 108 -27 233 -28 78 0 142 -2 142 -3 0 -1 -35 -25 -77 -55 -138 -94 -247
-197 -258 -246 -42 -172 -89 -291 -145 -363 -33 -43 -74 -129 -66 -137 3 -3 1
-13 -6 -20 -7 -9 -8 -17 -2 -21 6 -4 20 -30 32 -59 35 -82 26 -188 -23 -283
-24 -46 -13 -82 39 -130 64 -59 91 -130 82 -222 -3 -38 -11 -78 -16 -88 -19
-36 -12 -78 19 -106 57 -51 90 -168 62 -222 -5 -9 -19 -39 -32 -67 -32 -69
-123 -220 -169 -280 -20 -27 -66 -95 -100 -150 -79 -126 -91 -155 -92 -210 0
-49 1 -54 22 -65 32 -17 75 16 125 95 75 121 217 241 330 280 76 26 195 14
334 -34 61 -21 123 -47 138 -57 15 -10 32 -19 36 -19 4 0 21 -15 36 -32 16
-18 33 -33 39 -33 6 0 15 -8 20 -17 7 -12 27 -18 71 -21 59 -4 62 -3 94 30 17
19 47 65 66 102 19 38 48 78 63 89 27 20 98 32 98 17 0 -9 88 5 129 20 84 32
158 147 192 300 14 63 29 141 33 170 2 14 11 57 20 95 8 39 19 99 22 135 9 80
36 156 119 325 93 191 310 542 383 620 15 17 52 63 81 103 30 39 57 72 62 72
4 0 22 -21 40 -47 18 -27 41 -58 51 -69 19 -21 19 -23 -1 -137 -16 -91 -21
-156 -20 -299 0 -101 4 -205 9 -233 6 -27 16 -88 23 -135 20 -121 88 -286 143
-347 l44 -48 44 48 c55 61 123 226 143 347 7 47 17 108 23 135 5 28 9 132 9
233 1 143 -4 208 -20 299 -20 114 -20 116 -1 137 10 11 33 42 51 69 18 26 36
47 40 47 5 0 32 -33 62 -72 29 -40 66 -86 81 -103 73 -78 290 -429 383 -620
83 -169 110 -245 119 -325 3 -36 14 -96 22 -135 9 -38 18 -81 20 -95 4 -29 19
-107 33 -170 34 -153 108 -268 192 -300 41 -15 129 -29 129 -20 0 15 71 3 98
-17 15 -11 44 -51 63 -89 19 -37 49 -83 66 -102 32 -33 35 -34 94 -30 44 3 64
9 71 21 5 9 14 17 20 17 6 0 23 15 39 33 15 17 32 32 36 32 4 0 21 9 36 19 15
10 77 36 138 57 139 48 258 60 334 34 113 -39 255 -159 330 -280 50 -79 93
-112 125 -95 21 11 22 16 22 65 -1 55 -13 84 -92 210 -34 55 -80 123 -100 150
-46 60 -137 211 -169 280 -13 28 -27 58 -32 67 -28 54 5 171 62 222 31 28 38
70 19 106 -5 10 -13 50 -16 88 -9 92 18 163 82 222 52 48 63 84 39 130 -49 95
-58 201 -23 283 12 29 26 55 32 59 6 4 5 12 -2 21 -7 7 -9 17 -6 20 8 8 -33
94 -66 137 -56 72 -103 191 -145 363 -11 49 -120 152 -257 246 -43 30 -78 54
-78 55 0 1 64 3 143 3 124 1 153 4 232 28 100 29 182 65 216 92 66 54 110 93
104 93 -3 0 2 9 12 19 24 26 136 214 162 273 11 25 34 88 51 140 16 51 34 102
39 113 10 20 35 138 65 305 8 47 18 99 21 115 4 17 15 104 25 195 18 164 33
251 49 280 4 8 14 40 21 70 7 30 17 60 22 66 5 7 10 25 12 40 4 26 24 90 72
224 8 24 19 63 24 85 5 22 18 83 29 135 24 105 23 226 -2 293 -42 115 -177
170 -417 171 -190 1 -330 -33 -515 -126 -229 -115 -469 -289 -815 -593 -292
-256 -470 -427 -577 -557 -21 -25 -77 -93 -125 -150 -223 -264 -505 -655 -618
-855 -19 -34 -41 -63 -47 -63 -16 0 -16 9 -1 81 9 45 9 63 -2 88 -17 43 -65
81 -101 81 -16 0 -29 4 -29 8 0 4 18 26 41 47 62 61 241 281 291 360 74 115
184 323 233 440 25 61 51 119 57 130 92 165 101 195 60 195 -40 0 -71 -59
-107 -201 -28 -114 -54 -186 -98 -269 -95 -180 -135 -251 -169 -302 -52 -77
-181 -238 -253 -316 -53 -57 -60 -62 -71 -47 -16 21 -60 45 -84 45 -24 0 -68
-24 -84 -45 -11 -15 -18 -10 -71 47 -72 78 -201 239 -253 316 -34 51 -74 122
-169 302 -44 83 -70 155 -98 269 -36 142 -67 201 -107 201 -41 0 -32 -30 60
-195 6 -11 32 -69 57 -130 49 -117 159 -325 233 -440 50 -79 229 -299 291
-360 23 -21 41 -43 41 -47 0 -4 -13 -8 -29 -8 -36 0 -84 -38 -101 -81 -11 -25
-11 -43 -2 -88 15 -72 15 -81 0 -81 -7 0 -29 29 -48 63 -113 200 -395 591
-618 855 -48 57 -104 125 -125 150 -184 222 -717 699 -1042 933 -335 241 -564
336 -830 344 -55 2 -116 1 -135 -1z"/>
</g>
</svg>
